<svg width="52" height="55" viewBox="0 0 52 55" fill="none" xmlns="http://www.w3.org/2000/svg">
<path d="M25.0633 3.35905L25.0633 3.35869C24.9289 1.66805 23.4733 0.531156 21.8568 0.580952L21.8444 0.581335L21.832 0.582336C18.9575 0.814351 16.0831 1.04624 13.2088 1.27811C10.0698 1.53134 6.93098 1.78456 3.79227 2.03792L3.79226 2.03779L3.78098 2.03896C2.13294 2.20971 0.91776 3.68426 1.05854 5.34999L1.05854 5.34999L1.05872 5.35204C1.19753 6.91767 2.64814 8.19176 4.30399 8.02349C7.43764 7.7703 10.5712 7.51728 13.7048 7.26425C16.5695 7.03293 19.4343 6.80161 22.2995 6.57013C23.9804 6.51083 25.1935 5.01128 25.0633 3.35905Z" fill="#EC1A7D" stroke="#EC1A7D"/>
<path d="M2.43308 53.3516L2.43327 53.3517C3.58784 54.5041 5.49441 54.5821 6.67928 53.3383C11.9472 48.1097 16.791 42.5209 21.5867 36.9228C21.9884 36.4539 22.3897 35.985 22.7909 35.5162C27.1852 30.3815 31.5652 25.2636 36.2363 20.4097L36.2364 20.4097L36.2431 20.4025C37.3774 19.1764 37.3395 17.2671 36.1436 16.1055L36.1342 16.0964L36.1244 16.0878C34.9571 15.0667 33.0607 14.9773 31.8981 16.2299C27.2212 21.1044 22.8376 26.2425 18.4618 31.3715C18.0608 31.8416 17.6597 32.3116 17.2586 32.7814C12.4771 38.3803 7.67182 43.9407 2.45089 49.1375C1.26527 50.2684 1.27044 52.1899 2.43308 53.3516Z" fill="#EC1A7D" stroke="#EC1A7D"/>
<path d="M45.5641 24.8298L45.564 24.8298L45.5631 24.8336C43.955 31.3263 43.2532 38.0861 42.624 44.6059L42.624 44.6059L42.6238 44.6075C42.4701 46.2578 43.6536 47.8029 45.3327 47.8844C46.9836 48.0638 48.4372 46.8201 48.5982 45.2511L48.5982 45.2511L48.5985 45.2477C49.2036 38.9218 49.8554 32.436 51.385 26.3279C51.7885 24.745 50.8067 23.1042 49.21 22.6765C47.5917 22.2426 45.9661 23.2602 45.5641 24.8298Z" fill="#EC1A7D" stroke="#EC1A7D"/>
</svg>
