<svg width="59" height="61" viewBox="0 0 59 61" fill="none" xmlns="http://www.w3.org/2000/svg">
<path d="M3.13155 37.0246L3.13122 37.0247C1.53296 37.5921 0.811553 39.2924 1.27802 40.8408L1.2816 40.8527L1.28578 40.8645C2.25386 43.581 3.2218 46.2974 4.1897 49.0138C5.24672 51.9802 6.30371 54.9466 7.3608 57.9128L7.36068 57.9128L7.36473 57.9234C7.9562 59.4711 9.69502 60.2632 11.2676 59.6961L11.2676 59.6961L11.2695 59.6954C12.7458 59.1561 13.6011 57.4252 13.01 55.8693C11.9544 52.908 10.8989 49.9467 9.84348 46.9853C8.87861 44.2781 7.9137 41.5708 6.94855 38.8631C6.45623 37.2549 4.69379 36.4712 3.13155 37.0246Z" fill="#EC1A7D" stroke="#EC1A7D"/>
<path d="M57.2774 45.9447L57.2775 45.9445C58.0918 44.531 57.6736 42.6692 56.1656 41.8466C49.7517 38.1115 43.0997 34.8792 36.4511 31.6958C35.8942 31.4292 35.3374 31.1629 34.7808 30.8967C28.6837 27.9811 22.6065 25.075 16.7091 21.8193L16.7091 21.8192L16.7004 21.8146C15.2225 21.0363 13.3881 21.567 12.5755 23.0229L12.5692 23.0342L12.5634 23.0459C11.8792 24.4377 12.2837 26.2927 13.7945 27.0914C19.7134 30.3474 25.811 33.2518 31.8977 36.151C32.4556 36.4167 33.0134 36.6824 33.571 36.9483C40.2167 40.1178 46.8314 43.3202 53.2023 47.0182C54.6015 47.8707 56.4562 47.3684 57.2774 45.9447Z" fill="#EC1A7D" stroke="#EC1A7D"/>
<path d="M18.5648 11.6657L18.5648 11.6657L18.5688 11.6656C25.2564 11.5385 31.9675 10.4669 38.428 9.38717L38.428 9.38718L38.4296 9.38689C40.0635 9.10821 41.2496 7.56518 40.8938 5.92217C40.6397 4.28115 39.0622 3.19893 37.505 3.4495L37.505 3.44949L37.5016 3.45006C31.2346 4.5029 24.8011 5.55197 18.5053 5.65532C16.8719 5.67525 15.5412 7.04826 15.5412 8.70129C15.541 10.3767 16.9446 11.6836 18.5648 11.6657Z" fill="#EC1A7D" stroke="#EC1A7D"/>
</svg>
