<svg width="263" height="51" viewBox="0 0 263 51" fill="none" xmlns="http://www.w3.org/2000/svg">
<g style="mix-blend-mode:plus-lighter">
<path d="M254.67 38.8427C250.481 38.8427 246.285 39.2914 242.185 39.5392C216.23 41.108 189.692 42.205 163.364 42.4948C147.117 42.6736 130.797 42.5804 114.549 42.5512C96.6607 42.5191 78.3858 42.8038 60.8587 41.3276C46.5656 40.1238 32.7185 38.1804 20.832 35.0966C13.7635 33.2627 5.37002 30.8492 3.36379 27.6607C0.739944 23.4906 12.8869 20.1398 21.2606 18.06C40.5487 13.2693 64.8295 10.2326 87.061 7.66859C111.622 4.83591 138.765 3 164.65 3C181.825 3 199.515 4.01894 213.946 7.48034C226.226 10.4254 237.336 14.7687 244.864 19.2648C251.136 23.0106 254.99 27.1597 257.563 31.388C259.535 34.6276 262.079 38.8401 257.135 41.8924C251.014 45.6705 237.655 46.7633 226.324 47.4081C214.301 48.0922 202.025 48.0173 189.888 47.9728C176.24 47.9229 162.463 47.8588 149.003 46.9751C120.037 45.0734 91.7829 41.4572 64.6632 37.4873" stroke="#EC1A7D" stroke-width="6" stroke-linecap="round"/>
</g>
</svg>
