<svg width="11" height="8" viewBox="0 0 11 8" fill="none" xmlns="http://www.w3.org/2000/svg">
<path d="M1.90918 7.5498H8.95361C9.72705 7.5498 10.1621 7.11035 10.1621 6.26221V1.40625C10.1621 0.5625 9.72266 0.123047 8.87012 0.123047H1.82129C1.04785 0.123047 0.612793 0.558105 0.612793 1.40625V6.26221C0.612793 7.11475 1.05225 7.5498 1.90918 7.5498ZM4.8667 4.13965L1.43018 0.755859C1.54883 0.681152 1.70703 0.641602 1.896 0.641602H8.87891C9.07666 0.641602 9.23926 0.685547 9.3667 0.773438L5.94336 4.13965C5.75439 4.32861 5.57422 4.40332 5.40283 4.40332C5.23584 4.40332 5.05127 4.32422 4.8667 4.13965ZM1.13135 6.25781V1.41064C1.13135 1.33154 1.14014 1.26123 1.14893 1.19971L3.87354 3.86279L1.15771 6.5083C1.14014 6.43359 1.13135 6.3501 1.13135 6.25781ZM9.64355 1.41064V6.26221C9.64355 6.34131 9.63477 6.41602 9.62158 6.48193L6.93652 3.86279L9.63037 1.22607C9.63916 1.2832 9.64355 1.34473 9.64355 1.41064ZM1.896 7.02686C1.72021 7.02686 1.5752 6.99609 1.45654 6.93018L4.23389 4.21436L4.55908 4.53516C4.84473 4.81641 5.12598 4.92627 5.40283 4.92627C5.67969 4.92627 5.96094 4.81641 6.25098 4.53516L6.57617 4.21436L9.34033 6.91699C9.21729 6.9917 9.06348 7.02686 8.87891 7.02686H1.896Z" fill="black"/>
</svg>
