<svg width="22" height="22" viewBox="0 0 22 22" fill="none" xmlns="http://www.w3.org/2000/svg">
<path d="M1.75098 9.68652C2.32031 9.68652 2.72852 9.25684 2.72852 8.6875L2.72852 7.78516L2.51367 4.03613L5.33887 7.01172L8.64746 10.3418C8.83008 10.5352 9.06641 10.6211 9.32422 10.6211C9.93652 10.6211 10.3877 10.2236 10.3877 9.62207C10.3877 9.33203 10.291 9.07422 10.0977 8.88086L6.77832 5.57227L3.80273 2.74707L7.5625 2.96191H8.4541C9.02344 2.96191 9.46387 2.56445 9.46387 1.98438C9.46387 1.4043 9.03418 0.996094 8.4541 0.996094L2.49219 0.996094C1.39648 0.996094 0.762695 1.62988 0.762695 2.72559L0.762695 8.6875C0.762695 9.24609 1.18164 9.68652 1.75098 9.68652ZM13.5352 21.4922H19.4971C20.5928 21.4922 21.2373 20.8584 21.2373 19.7627L21.2373 13.8008C21.2373 13.2422 20.8184 12.8018 20.2383 12.8018C19.6797 12.8018 19.2607 13.2314 19.2607 13.8008L19.2607 14.7031L19.4863 18.4521L16.6504 15.4766L13.3525 12.1465C13.1699 11.9531 12.9229 11.8672 12.665 11.8672C12.0635 11.8672 11.6016 12.2646 11.6016 12.8662C11.6016 13.1562 11.709 13.4141 11.9023 13.6074L15.2109 16.916L18.1973 19.7412L14.4375 19.5264H13.5352C12.9658 19.5264 12.5254 19.9238 12.5254 20.5039C12.5254 21.084 12.9658 21.4922 13.5352 21.4922Z" fill="white"/>
</svg>
