<svg width="32" height="22" viewBox="0 0 32 22" fill="none" xmlns="http://www.w3.org/2000/svg">
<path d="M27.1719 21.793C27.5693 22.0615 28.0957 21.9541 28.4072 21.5137C30.3945 18.71 31.5225 15.0791 31.5225 11.2441C31.5225 7.40918 30.3623 3.78906 28.4072 0.974609C28.0957 0.523438 27.5693 0.416016 27.1719 0.695313C26.7637 0.985352 26.6992 1.51172 27.0107 1.96289C28.7402 4.50879 29.8145 7.77441 29.8145 11.2441C29.8145 14.7139 28.7832 18.0332 27.0107 20.5254C26.6992 20.9766 26.7637 21.5029 27.1719 21.793ZM2.79785 15.7881H5.98828C6.0957 15.7881 6.19238 15.8203 6.25684 15.8848L11.3057 20.4072C11.832 20.8799 12.251 21.1055 12.7773 21.1055C13.5078 21.1055 14.0342 20.5684 14.0342 19.8486L14.0342 2.71484C14.0342 1.99512 13.5078 1.4043 12.7559 1.4043C12.2295 1.4043 11.8857 1.65137 11.3057 2.16699L6.25684 6.64648C6.19238 6.71094 6.0957 6.74316 5.98828 6.74316H2.79785C1.27246 6.74316 0.520509 7.50586 0.520509 9.12793L0.520508 13.4033C0.520508 15.0254 1.27246 15.7881 2.79785 15.7881ZM22.8428 18.8604C23.2617 19.1396 23.7773 19.0322 24.0781 18.6025C25.4961 16.626 26.3232 13.9941 26.3232 11.2441C26.3232 8.4834 25.5176 5.84082 24.0781 3.875C23.7666 3.45605 23.2617 3.34863 22.8428 3.62793C22.4346 3.90723 22.3701 4.43359 22.6924 4.89551C23.8633 6.61426 24.5938 8.87012 24.5938 11.2441C24.5938 13.6182 23.874 15.8955 22.6924 17.5928C22.3809 18.0547 22.4346 18.5811 22.8428 18.8604ZM2.87305 14.166C2.4541 14.166 2.25 13.9727 2.25 13.543L2.25 8.98828C2.25 8.56934 2.4541 8.36523 2.87305 8.36523H6.4502C6.74024 8.36523 6.94434 8.32227 7.21289 8.0752L11.9717 3.75684C12.0254 3.71387 12.0898 3.6709 12.1543 3.6709C12.2402 3.6709 12.3047 3.73535 12.3047 3.82129L12.3047 18.6777C12.3047 18.7744 12.251 18.8389 12.1543 18.8389C12.1006 18.8389 12.0361 18.8066 11.9717 18.7422L7.21289 14.4561C6.94434 14.2197 6.74024 14.166 6.4502 14.166H2.87305ZM18.5566 15.96C18.9219 16.2178 19.4482 16.1426 19.7598 15.7129C20.5977 14.585 21.1025 12.9307 21.1025 11.2441C21.1025 9.55762 20.5977 7.91406 19.7598 6.77539C19.4482 6.3457 18.9326 6.27051 18.5566 6.51758C18.0947 6.83984 18.0303 7.3877 18.374 7.84961C18.9971 8.6875 19.373 9.96582 19.373 11.2441C19.373 12.5225 18.9756 13.8008 18.3633 14.6494C18.041 15.1113 18.0947 15.6377 18.5566 15.96Z" fill="white"/>
</svg>
