<svg width="17" height="15" viewBox="0 0 17 15" fill="none" xmlns="http://www.w3.org/2000/svg">
<path d="M0.59375 10.3359C0.8125 10.3281 0.96875 10.1641 0.976562 9.9375C1.03125 6.65625 2.71875 4.1875 5.29688 3.1875L7.25 8.55469C7.26562 8.59375 7.25781 8.625 7.21875 8.64062C7.1875 8.64844 7.15625 8.64062 7.13281 8.60938L5.9375 7.28906C5.49219 6.80469 4.96875 6.67188 4.48438 6.84375C3.82031 7.08594 3.39062 7.73438 3.67188 8.48438C3.74219 8.67969 3.875 8.92969 4.03125 9.125L6.72656 12.3828C8.57812 14.6328 10.8203 15.3359 13.2969 14.4375C16.2266 13.3672 17.5859 10.7109 16.3516 7.3125L15.8047 5.8125C15.1953 4.125 14.1016 3.44531 12.7812 3.90625C12.4375 3.44531 11.8828 3.27344 11.2812 3.49219C11.0625 3.57812 10.8516 3.69531 10.6641 3.85156C10.2969 3.35938 9.70312 3.17188 9.08594 3.39844C8.90625 3.46094 8.71875 3.57031 8.55469 3.69531L7.63281 1.16406C7.3125 0.304688 6.53906 -0.0390625 5.76562 0.242188C4.97656 0.523438 4.60156 1.28906 4.92188 2.14844L5.02344 2.42969C2.14062 3.55469 0.195312 6.35938 0.195312 9.92188C0.195312 10.1406 0.382812 10.3438 0.59375 10.3359ZM13.0391 13.6406C10.9766 14.3906 9.03125 13.9219 7.34375 11.875L4.65625 8.61719C4.57031 8.51562 4.50781 8.42188 4.46094 8.28125C4.35156 7.99219 4.48438 7.67188 4.82031 7.54688C5.07812 7.45312 5.32031 7.55469 5.54688 7.80469L7.34375 9.71094C7.59375 9.97656 7.83594 10.0078 8.07031 9.92188C8.35156 9.82031 8.48438 9.53906 8.36719 9.22656L5.67188 1.82812C5.53906 1.45312 5.67969 1.10938 6.03906 0.976562C6.39062 0.851562 6.70312 1.02344 6.84375 1.39844L8.75 6.64844C8.82812 6.85938 9.05469 6.96875 9.26562 6.89062C9.47656 6.8125 9.57031 6.58594 9.49219 6.375L8.79688 4.46094C8.92969 4.34375 9.10156 4.22656 9.25781 4.17188C9.67969 4.01562 10.0234 4.20312 10.1875 4.65625L10.7578 6.22656C10.8516 6.47656 11.0781 6.55469 11.2812 6.47656C11.4688 6.40625 11.5938 6.20312 11.5078 5.96094L10.9922 4.55469C11.125 4.4375 11.2969 4.32812 11.4609 4.26562C11.875 4.11719 12.2188 4.29688 12.3828 4.75L12.7734 5.8125C12.8594 6.0625 13.0938 6.14062 13.2891 6.0625C13.4844 5.99219 13.6094 5.78906 13.5156 5.54688L13.1875 4.64844C13.9453 4.375 14.6094 4.92188 15.0781 6.1875L15.5547 7.51562C16.6406 10.5078 15.5703 12.7188 13.0391 13.6406Z" fill="white"/>
</svg>
