<svg width="20" height="20" viewBox="0 0 20 20" fill="none" xmlns="http://www.w3.org/2000/svg">
<path d="M12.75 9.3418H17.8848C19.0986 9.3418 19.7217 8.75098 19.7217 7.4834V2.40234C19.7217 1.12402 19.0986 0.533203 17.8848 0.533203H12.75C11.5361 0.533203 10.9131 1.12402 10.9131 2.40234V7.4834C10.9131 8.75098 11.5361 9.3418 12.75 9.3418ZM2.09375 9.3418H7.23926C8.45312 9.3418 9.06543 8.75098 9.06543 7.4834V2.40234C9.06543 1.12402 8.45312 0.533203 7.23926 0.533203H2.09375C0.890625 0.533203 0.267578 1.12402 0.267578 2.40234V7.4834C0.267578 8.75098 0.890625 9.3418 2.09375 9.3418ZM2.09375 19.9873H7.23926C8.45312 19.9873 9.06543 19.3965 9.06543 18.1289V13.0479C9.06543 11.7803 8.45312 11.1895 7.23926 11.1895H2.09375C0.890625 11.1895 0.267578 11.7803 0.267578 13.0479V18.1289C0.267578 19.3965 0.890625 19.9873 2.09375 19.9873ZM12.75 19.9873H17.8848C19.0986 19.9873 19.7217 19.3965 19.7217 18.1289V13.0479C19.7217 11.7803 19.0986 11.1895 17.8848 11.1895H12.75C11.5361 11.1895 10.9131 11.7803 10.9131 13.0479V18.1289C10.9131 19.3965 11.5361 19.9873 12.75 19.9873Z" fill="white"/>
</svg>
