<svg width="164" height="30" viewBox="0 0 164 30" fill="none" xmlns="http://www.w3.org/2000/svg">
<g style="mix-blend-mode:plus-lighter">
<path d="M3.32462 13.7798C5.33524 14.1834 24.8173 19.8414 27.2476 17.5286C29.1385 15.7292 28.4284 11.2805 28.3536 9.14462C28.2465 6.08582 27.6978 2.07855 33.9233 4.0528C37.6419 5.23205 40.9584 6.9124 44.5173 8.26828C46.7654 9.12477 54.4792 13.1379 55.7757 10.0466C56.5146 8.28475 55.4429 4.14645 58.2838 3.16532C62.0424 1.86725 71.8131 12.6087 74.3812 14.6712C75.3874 15.4793 83.208 22.4121 84.4881 19.2486C85.1412 17.6344 85.7204 9.56519 88.2271 8.97924C90.6993 8.40136 94.787 12.431 95.9779 13.3632C99.9076 16.4393 103.751 19.3062 108.372 21.8952C109.78 22.6837 116.076 27.813 118.898 25.5958C121.924 23.2189 120.962 16.4484 121.869 13.3533C124.041 5.93641 132.157 19.8288 137.27 16.4003C139.815 14.6935 138.297 10.9766 140.114 9.12799C142.92 6.27298 150.17 11.1147 152.421 12.2835C153.024 12.5967 160.746 17.7263 160.838 15.713C160.941 13.4487 160.678 11.1564 160.599 8.89349" stroke="#EC1A7D" stroke-width="6" stroke-linecap="round"/>
</g>
</svg>
