<svg id="logo" xmlns="http://www.w3.org/2000/svg" viewBox="0 0 120 120">
  <g fill="currentColor">
    <path d="M48.66,34.44h9.23L41.21,88.33h-12Z"/>
    <path d="M116.06,54.41c-5.11-3.76-11.47-3.17-15.17-2a19,19,0,0,0-6,3.51c-2.87,2.41-5.75,6.4-5.53,11,.36,7.8,9.18,5.68,12.93,10.36a8.61,8.61,0,0,1,1,9.5,6,6,0,0,1-7.14,3.39A7.94,7.94,0,0,1,93.45,89c-3.59-2.46-6.27-6.81-8.55-10.79C82,73.13,78.19,67,78.25,62.93c0-2.91,5.18-6.82,10.77-11.5,3.46-2.89,5.32-4.70,11.08-9.88,2.59-2.33,7.78-7.11,7.78-7.11h-13s-4.65,5.36-7.78,9.17c0,0-1.71,2.07-5,5.82-5.2,6-9.88,9.63-12.15,9.18a.88.88,0,0,1-.23-.07c-2.12-.94-.29-6.45,1.76-11.59,1.15-2.87,6.27-12.51,6.27-12.51H66.16L49.48,88.33H61.1A78.33,78.33,0,0,1,63.22,76.4c.76-2.92,2.83-11.65,5.44-11.65,2,0,4.22,2.61,6,11.86C76,83.08,79,90.77,82.76,94c8.66,7.33,19.3,4.14,23.89,2.12,4.76-2.1,7.87-6.19,8.43-9.58,1.38-8.36-5-12.89-9-14.95s-5.55-3.92-5.68-6.75c-.18-3.79,2.42-8.42,6.81-9.13,2.17-.36,5.19.18,5.75,2.28.61,2.29-4.59,7.34-4.59,7.34h10.1S122.85,59.41,116.06,54.41Z"/>
    <path d="M15.64,40c1.52,10.23,4.69,18.58,7.21,18.58s4.19-2.16,7.68-16C32.63,34.3,35,21.48,35,21.48H45.56L26.62,72.25H16.5L.14,21.48H14.08A156.14,156.14,0,0,0,15.64,40Z"/>
  </g>
</svg>
